<svg height="681pt" viewBox="-21 -21 681 681.33561" width="681pt" xmlns="http://www.w3.org/2000/svg"><path d="m159.699219 610.886719 222.832031-223.234375c21.867188-21.871094 57.449219-21.871094 79.320312 0 21.867188 21.867187 21.867188 57.449218 0 79.320312l-145.421874 145.421875 26.4375 26.441407 145.421874-145.425782c36.449219-36.445312 36.449219-95.753906 0-132.199218-36.445312-36.449219-95.753906-36.449219-132.214843.011718l-222.828125 223.238282c-21.917969 21.917968-57.394532 21.921874-79.320313 0-21.835937-21.839844-22.027343-57.292969.074219-79.390626l24.535156-24.808593 24.921875 24.929687 261.257813-206.984375c44.40625 5.234375 89.878906-9.0625 123.574218-42.757812 58.320313-58.320313 58.320313-153.207031 0-211.523438-58.449218-58.453125-153.0625-58.460937-211.523437 0-33.695313 33.691407-47.992187 79.164063-42.757813 123.574219l-206.984374 261.253906 25.070312 25.066406-24.605469 24.878907c-36.535156 36.53125-36.539062 95.664062 0 132.203125 36.519531 36.519531 95.652344 36.550781 132.210938-.015625zm302.148437-540.519531c41.867188 41.859374 43.632813 108.839843 5.351563 152.855468-36.707031 2.976563-78.683594-14.667968-111.109375-47.097656-32.433594-32.429688-50.074219-74.410156-47.097656-111.113281 43.800781-38.148438 110.628906-36.871094 152.855468 5.355469zm-185.195312 42.113281c8.492187 32.136719 26.808594 63.898437 52.992187 90.089843 26.1875 26.183594 57.953125 44.5 90.085938 52.992188-39.386719 13.804688-84.9375 5.027344-116.523438-26.554688-31.484375-31.480468-40.398437-77.039062-26.554687-116.527343zm.113281 142.96875c12.792969 12.792969 27.5 22.972656 43.46875 30.292969l-154.875 122.699218-41.589844-41.582031 122.703125-154.878906c7.320313 15.96875 17.5 30.675781 30.292969 43.46875zm-176.367187 140.910156 35.457031 35.457031-29.507813 23.378906-29.328125-29.328124zm0 0"/><path d="m263.550781 295.109375-52.882812 52.878906-26.441407-26.4375 52.886719-52.878906zm0 0"/><path d="m113.53125 79.363281c-5.855469-2.078125-12.144531-3.214843-18.699219-3.214843-30.925781 0-56.085937 25.160156-56.085937 56.089843 0 30.925781 25.160156 56.085938 56.085937 56.085938 30.929688 0 56.089844-25.160157 56.089844-56.085938v-76.082031l48.929687 20.289062 14.320313-34.542968-100.640625-41.734375zm-18.699219 71.570313c-10.308593 0-18.695312-8.386719-18.695312-18.695313 0-10.3125 8.386719-18.699219 18.695312-18.699219 10.3125 0 18.699219 8.386719 18.699219 18.699219 0 10.308594-8.386719 18.695313-18.699219 18.695313zm0 0"/><path d="m600.878906 375.289062v-37.394531h37.390625v-37.390625h-37.390625v-37.394531h-37.394531v37.394531h-37.390625v37.390625h37.390625v37.394531zm0 0"/><path d="m562.238281 38.753906h37.390625v37.394532h-37.390625zm0 0"/><path d="m.105469.117188h37.390625v37.394531h-37.390625zm0 0"/></svg>